<svg version="1.1" id="Layer_1" xmlns="http://www.w3.org/2000/svg" xmlns:xlink="http://www.w3.org/1999/xlink" x="0px" y="0px"
	 width="100%" viewBox="0 0 500 500" enable-background="new 0 0 500 500" xml:space="preserve">
<path fill="#000000" opacity="1.000000" stroke="none" 
	d="
M300.000000,501.000000 
	C200.000031,501.000000 100.500046,501.000000 1.000053,501.000000 
	C1.000036,334.333405 1.000036,167.666794 1.000018,1.000143 
	C167.666565,1.000095 334.333130,1.000095 500.999756,1.000048 
	C500.999847,167.666519 500.999847,334.333038 500.999939,500.999786 
	C434.166656,501.000000 367.333344,501.000000 300.000000,501.000000 
M141.627823,94.190323 
	C141.382950,94.382431 141.249542,94.633682 141.102570,95.422798 
	C141.102570,95.422798 140.995712,95.905899 140.486359,96.357979 
	C139.291412,98.557762 138.096466,100.757545 136.407379,103.432945 
	C129.753845,116.291367 124.957375,129.801727 121.945473,144.781082 
	C121.349625,148.539169 120.753777,152.297272 120.086250,156.680130 
	C120.049240,157.097717 120.012230,157.515320 119.524719,158.611511 
	C119.064911,164.406403 118.605110,170.201279 118.062393,176.872559 
	C118.013641,179.215302 117.964882,181.558060 117.487511,184.374588 
	C117.413872,185.208420 117.340240,186.042267 117.194946,187.826508 
	C117.159416,245.953583 117.101425,304.080658 117.096626,362.207733 
	C117.093658,398.183319 117.176132,434.158905 117.205750,470.134491 
	C117.208603,473.599792 116.996597,476.889496 122.113602,476.869934 
	C156.420181,476.738617 190.727234,476.725494 225.807098,476.683014 
	C226.536011,474.568420 227.897720,472.455048 227.901779,470.339050 
	C228.018906,409.378418 228.014816,348.417542 227.997803,287.456696 
	C227.986710,247.650040 227.924927,207.843384 228.076523,167.250854 
	C229.638718,161.484238 231.200897,155.717606 233.066147,149.400650 
	C233.379333,148.632751 233.692535,147.864838 234.455566,146.690018 
	C234.658386,146.124252 234.861206,145.558487 235.582291,144.583542 
	C238.454697,141.643265 240.897049,138.024902 244.275375,135.882339 
	C257.534729,127.473114 271.653992,128.025528 286.406342,133.499725 
	C289.145264,135.458176 291.884155,137.416626 294.698364,139.348404 
	C294.698364,139.348404 294.671661,139.273132 294.896484,139.829483 
	C295.502075,140.316895 296.107697,140.804306 296.592163,141.317352 
	C296.592163,141.317352 296.617737,141.438492 296.841217,141.911163 
	C297.196808,142.288925 297.552368,142.666672 298.104767,143.744614 
	C298.862915,145.400101 299.746796,147.010498 300.359070,148.718277 
	C304.741089,160.940399 307.232086,173.280960 298.578674,184.651108 
	C291.745514,193.629593 281.811615,197.851410 270.990540,199.918243 
	C265.819061,200.906036 260.533203,201.286697 255.306747,201.998245 
	C251.847153,202.469254 249.940201,204.355743 250.063980,208.949417 
	C250.098633,235.617111 250.133270,262.284821 250.085571,289.701721 
	C250.112503,290.453735 250.139420,291.205780 250.205399,292.573181 
	C250.810135,292.990723 251.414856,293.408234 252.658707,293.931824 
	C253.088058,293.978607 253.517410,294.025421 254.407242,294.527557 
	C255.249084,294.624481 256.090912,294.721436 257.860504,294.921936 
	C270.713959,294.444885 283.259674,296.437378 295.528595,300.051208 
	C306.398712,303.253052 316.292297,308.377686 319.862122,320.034698 
	C321.708832,326.065033 321.899139,332.751190 321.960114,339.149414 
	C322.095673,353.368195 313.085388,364.365173 299.323456,368.238251 
	C284.119141,372.517303 268.597687,373.332062 252.161682,373.226196 
	C251.443222,374.673035 250.101944,376.118256 250.098267,377.566925 
	C250.024307,406.710510 250.104172,435.854492 250.057816,465.907349 
	C250.044662,468.368408 249.693680,470.894989 250.153442,473.264282 
	C250.402878,474.549683 252.032852,475.567139 253.969498,476.781464 
	C273.329681,476.773010 292.689850,476.764557 312.621735,476.769104 
	C313.129547,476.533264 313.637360,476.297424 315.053375,476.003845 
	C333.899811,475.897095 351.979919,472.320374 369.743805,463.914703 
	C374.179260,461.619232 378.614746,459.323792 383.001251,457.002625 
	C383.001251,457.002625 383.014313,457.056335 383.632965,456.923126 
	C384.427032,456.281952 385.221100,455.640778 385.988922,454.988251 
	C385.988922,454.988251 385.998566,455.015198 386.674530,454.848877 
	C389.217896,453.028046 391.761261,451.207214 394.289978,449.342590 
	C394.289978,449.342590 394.333954,449.356812 394.967896,449.131165 
	C397.011780,447.429413 399.055664,445.727661 401.680328,443.698364 
	C405.469482,439.833038 409.258636,435.967743 413.611481,431.744476 
	C414.840088,429.910553 416.068695,428.076630 417.276215,426.308167 
	C417.276215,426.308167 417.342804,426.325439 417.953522,426.074341 
	C418.998108,424.391876 420.042694,422.709412 421.027039,421.020477 
	C421.027039,421.020477 421.043884,421.078613 421.592529,420.698669 
	C422.742249,418.800171 423.891968,416.901672 425.423676,414.601257 
	C425.624756,414.087006 425.825867,413.572754 426.453094,412.652039 
	C426.663300,412.106720 426.873535,411.561371 427.575958,410.543182 
	C429.391785,406.389343 431.207611,402.235504 433.508240,397.556305 
	C434.608429,394.363861 435.708618,391.171417 436.957306,387.300995 
	C437.248993,386.190155 437.540680,385.079315 438.031555,383.204681 
	C438.966675,376.795624 439.901825,370.386536 440.941864,363.555878 
	C440.941864,363.555878 441.017853,363.128113 441.320892,362.808228 
	C441.516998,362.577606 441.631683,362.311859 441.737732,361.074890 
	C441.740601,353.393860 441.743469,345.712799 441.638092,337.566772 
	C441.491699,337.276306 441.289917,337.031586 441.004456,335.953308 
	C437.498260,292.897430 418.558502,259.666107 378.285309,239.539078 
	C389.837708,231.196091 397.760681,221.021912 404.277344,209.737396 
	C411.811676,196.690674 418.347809,182.952301 419.133698,167.799347 
	C420.557739,140.343155 416.436859,113.797310 402.192902,89.556679 
	C393.664764,75.043312 383.187714,62.365685 368.670441,52.429790 
	C366.419586,51.036018 364.168732,49.642250 361.509827,48.102200 
	C361.509827,48.102200 361.090637,47.991642 360.691315,47.425892 
	C353.460968,44.002602 346.230621,40.579311 338.341156,36.836575 
	C322.479309,30.477571 305.791595,27.667900 288.910858,27.231590 
	C274.731049,26.865093 260.476105,28.047304 246.306946,29.193110 
	C239.129288,29.773539 232.067673,31.788960 224.306381,33.106461 
	C223.524094,33.399193 222.741806,33.691925 222.006866,34.008286 
	C222.006866,34.008286 221.993362,33.957119 221.217545,34.025089 
	C216.453888,35.672390 211.690216,37.319687 206.219955,39.099400 
	C194.395340,44.451992 182.773483,50.144478 172.546616,59.181728 
	C172.345810,59.456997 172.145004,59.732265 172.006638,59.989021 
	C172.006638,59.989021 171.977386,59.930828 171.337738,60.075279 
	C170.205750,61.049229 169.073746,62.023178 167.549637,63.214718 
	C167.303421,63.396240 167.114899,63.625244 166.417969,64.258675 
	C164.270035,66.503334 162.122101,68.747993 160.008011,71.011681 
	C160.008011,71.011681 159.994400,70.975380 159.452896,71.285118 
	C158.901535,72.141716 158.350159,72.998322 157.795288,73.686066 
	C157.795288,73.686066 157.626434,73.689545 157.011871,73.916771 
	C154.993271,76.281105 152.974686,78.645432 150.443115,81.328156 
	C149.955566,82.181053 149.468033,83.033958 148.448135,84.256073 
	C147.620102,85.502579 146.792084,86.749092 146.011230,88.019684 
	C146.011230,88.019684 146.001892,87.967545 145.633133,88.200340 
	C145.389374,88.386436 145.244949,88.631149 144.929840,89.449028 
	C144.617462,89.937874 144.305084,90.426720 143.514450,91.313751 
	C142.992737,92.208267 142.471008,93.102783 142.006454,94.012863 
	C142.006454,94.012863 141.996979,93.954384 141.627823,94.190323 
z"/>
<path fill="#593819" opacity="1.000000" stroke="none" 
	d="
M140.995712,95.905899 
	C140.995712,95.905899 141.102570,95.422798 141.300964,95.025330 
	C141.677155,94.412170 141.843033,94.187675 141.996979,93.954384 
	C141.996979,93.954384 142.006454,94.012863 142.214554,93.798798 
	C142.946014,92.695007 143.469360,91.805290 143.992706,90.915573 
	C144.305084,90.426720 144.617462,89.937874 145.204880,89.036835 
	C145.664246,88.413834 145.838242,88.194801 146.001892,87.967545 
	C146.001892,87.967545 146.011230,88.019684 146.277313,87.847137 
	C147.355774,86.412018 148.168137,85.149437 148.980499,83.886864 
	C149.468033,83.033958 149.955566,82.181053 151.044312,81.081680 
	C153.639145,78.453316 155.632782,76.071426 157.626434,73.689545 
	C157.626434,73.689545 157.795288,73.686066 158.037994,73.577438 
	C158.851944,72.637672 159.423172,71.806526 159.994400,70.975380 
	C159.994400,70.975380 160.008011,71.011681 160.339111,70.923676 
	C162.774826,68.524353 164.879456,66.213043 166.984070,63.901733 
	C167.114899,63.625244 167.303421,63.396240 168.022614,63.132141 
	C169.656189,62.009983 170.816788,60.970409 171.977386,59.930832 
	C171.977386,59.930828 172.006638,59.989021 172.157837,59.824242 
	C172.536377,59.413189 172.763702,59.166916 172.991043,58.920643 
	C182.773483,50.144478 194.395340,44.451992 206.996613,39.017509 
	C212.794815,38.080235 218.324448,38.676086 221.993362,33.957119 
	C221.993362,33.957119 222.006866,34.008286 222.290375,33.941887 
	C223.367111,33.635532 224.160339,33.395573 224.953583,33.155609 
	C232.067673,31.788960 239.129288,29.773539 246.306946,29.193110 
	C260.476105,28.047304 274.731049,26.865093 288.910858,27.231590 
	C305.791595,27.667900 322.479309,30.477571 338.890808,37.238049 
	C346.657166,41.090229 353.873901,44.540932 361.090637,47.991638 
	C361.090637,47.991642 361.509827,48.102200 361.799011,48.514610 
	C363.031860,52.630066 366.011414,52.845905 369.036591,52.983639 
	C383.187714,62.365685 393.664764,75.043312 402.192902,89.556679 
	C416.436859,113.797310 420.557739,140.343155 419.133698,167.799347 
	C418.347809,182.952301 411.811676,196.690674 404.277344,209.737396 
	C397.760681,221.021912 389.837708,231.196091 378.285309,239.539078 
	C418.558502,259.666107 437.498260,292.897430 441.116760,336.606018 
	C441.377655,337.532349 441.550079,337.790009 441.746338,338.031769 
	C441.743469,345.712799 441.740601,353.393860 441.572784,361.715546 
	C441.246948,362.597870 441.116943,362.855194 441.017853,363.128113 
	C441.017853,363.128113 440.941864,363.555878 440.663635,364.053467 
	C439.534393,371.023529 438.683411,377.496002 437.832397,383.968506 
	C437.540680,385.079315 437.248993,386.190155 436.639984,387.868774 
	C435.222931,391.651581 434.123199,394.866638 433.023438,398.081665 
	C431.207611,402.235504 429.391785,406.389343 427.164368,410.901947 
	C426.510864,411.859985 426.268951,412.459259 426.026978,413.058533 
	C425.825867,413.572754 425.624756,414.087006 424.938110,414.970886 
	C423.316315,417.253204 422.180115,419.165924 421.043884,421.078613 
	C421.043884,421.078613 421.027039,421.020477 420.754272,421.173401 
	C419.435272,422.992676 418.389038,424.659058 417.342773,426.325439 
	C417.342804,426.325439 417.276215,426.308167 416.972717,426.385529 
	C415.462097,428.342743 414.254974,430.222626 413.047852,432.102478 
	C409.258636,435.967743 405.469482,439.833038 401.017426,443.905090 
	C398.347656,445.860138 396.340820,447.608459 394.333954,449.356812 
	C394.333954,449.356812 394.289978,449.342590 393.920868,449.375427 
	C391.034027,451.277252 388.516296,453.146210 385.998535,455.015198 
	C385.998566,455.015198 385.988922,454.988251 385.709656,455.096741 
	C384.625000,455.822296 383.819672,456.439331 383.014343,457.056335 
	C383.014313,457.056335 383.001251,457.002625 382.629272,457.045410 
	C376.977234,457.772430 372.328125,459.649750 369.030762,464.083069 
	C351.979919,472.320374 333.899811,475.897095 314.330750,476.101471 
	C313.088745,476.384766 312.569397,476.570435 312.050018,476.756104 
	C292.689850,476.764557 273.329681,476.773010 253.498657,476.316956 
	C252.356537,472.237610 251.685287,468.622711 251.014008,464.538696 
	C251.019409,436.986481 250.961304,409.903046 251.114807,382.820862 
	C251.132950,379.617310 252.310333,376.420349 252.950363,373.220337 
	C268.597687,373.332062 284.119141,372.517303 299.323456,368.238251 
	C313.085388,364.365173 322.095673,353.368195 321.960114,339.149414 
	C321.899139,332.751190 321.708832,326.065033 319.862122,320.034698 
	C316.292297,308.377686 306.398712,303.253052 295.528595,300.051208 
	C283.259674,296.437378 270.713959,294.444885 257.228729,294.704102 
	C255.713562,294.348236 254.830154,294.210236 253.946762,294.072205 
	C253.517410,294.025421 253.088058,293.978607 252.178589,293.668640 
	C251.187744,292.922882 250.677032,292.440338 250.166336,291.957794 
	C250.139420,291.205780 250.112503,290.453735 250.242004,288.935181 
	C250.594818,286.356628 250.958725,284.544952 250.962128,282.732574 
	C251.004944,259.958160 251.018188,237.183548 250.962723,214.409180 
	C250.957520,212.276978 250.434296,210.146011 250.151581,208.014481 
	C249.940201,204.355743 251.847153,202.469254 255.306747,201.998245 
	C260.533203,201.286697 265.819061,200.906036 270.990540,199.918243 
	C281.811615,197.851410 291.745514,193.629593 298.578674,184.651108 
	C307.232086,173.280960 304.741089,160.940399 300.359070,148.718277 
	C299.746796,147.010498 298.862915,145.400101 297.999634,143.205948 
	C297.468903,142.257675 297.043335,141.848083 296.617737,141.438492 
	C296.617737,141.438492 296.592163,141.317352 296.498810,141.055679 
	C295.827515,140.287048 295.249603,139.780090 294.671661,139.273132 
	C294.671661,139.273132 294.698364,139.348404 294.595825,139.006256 
	C292.761200,135.105469 291.959412,130.150085 285.968201,132.985840 
	C271.653992,128.025528 257.534729,127.473114 244.275375,135.882339 
	C240.897049,138.024902 238.454697,141.643265 235.169250,145.039642 
	C234.506058,146.029465 234.255890,146.563202 234.005737,147.096939 
	C233.692535,147.864838 233.379333,148.632751 232.602081,149.727448 
	C230.952606,151.199326 228.993057,152.187485 228.723328,153.518188 
	C227.826370,157.943222 227.536606,162.491364 226.997711,167.116180 
	C226.960144,167.489273 226.970047,167.737442 227.011505,167.988953 
	C227.011887,167.993347 227.035416,167.977432 227.031616,168.447510 
	C227.016953,267.101044 227.031448,365.284546 226.912170,463.467896 
	C226.906830,467.870697 225.687820,472.272034 225.034119,476.674011 
	C190.727234,476.725494 156.420181,476.738617 122.113602,476.869934 
	C116.996597,476.889496 117.208603,473.599792 117.205750,470.134491 
	C117.176132,434.158905 117.093658,398.183319 117.096626,362.207733 
	C117.101425,304.080658 117.159416,245.953583 117.327209,187.062927 
	C117.611694,185.499847 117.763916,184.700317 117.916130,183.900803 
	C117.964882,181.558060 118.013641,179.215302 118.332237,176.147186 
	C119.059792,169.592178 119.517509,163.762543 119.975220,157.932907 
	C120.012230,157.515320 120.049240,157.097717 120.339607,156.156891 
	C123.887482,152.134506 123.735352,148.170303 122.160744,144.014175 
	C124.957375,129.801727 129.753845,116.291367 136.992523,103.157227 
	C142.271378,102.297928 140.767838,98.677719 140.995712,95.905899 
z"/>
<path fill="#53402F" opacity="1.000000" stroke="none" 
	d="
M225.420609,476.678528 
	C225.687820,472.272034 226.906830,467.870697 226.912170,463.467896 
	C227.031448,365.284546 227.016953,267.101044 227.244141,168.460892 
	C227.460480,168.004211 227.885834,168.036728 227.885834,168.036728 
	C227.924927,207.843384 227.986710,247.650040 227.997803,287.456696 
	C228.014816,348.417542 228.018906,409.378418 227.901779,470.339050 
	C227.897720,472.455048 226.536011,474.568420 225.420609,476.678528 
z"/>
<path fill="#503F2F" opacity="1.000000" stroke="none" 
	d="
M252.556030,373.223267 
	C252.310333,376.420349 251.132950,379.617310 251.114807,382.820862 
	C250.961304,409.903046 251.019409,436.986481 250.798706,464.536255 
	C250.583435,465.003021 250.153091,464.998413 250.153091,464.998413 
	C250.104172,435.854492 250.024307,406.710510 250.098267,377.566925 
	C250.101944,376.118256 251.443222,374.673035 252.556030,373.223267 
z"/>
<path fill="#503F2D" opacity="1.000000" stroke="none" 
	d="
M250.107788,208.481949 
	C250.434296,210.146011 250.957520,212.276978 250.962723,214.409180 
	C251.018188,237.183548 251.004944,259.958160 250.962128,282.732574 
	C250.958725,284.544952 250.594818,286.356628 250.283173,288.560577 
	C250.133270,262.284821 250.098633,235.617111 250.107788,208.481949 
z"/>
<path fill="#4C3521" opacity="1.000000" stroke="none" 
	d="
M360.890991,47.708763 
	C353.873901,44.540932 346.657166,41.090229 339.220337,37.397774 
	C346.230621,40.579311 353.460968,44.002602 360.890991,47.708763 
z"/>
<path fill="#4B3623" opacity="1.000000" stroke="none" 
	d="
M227.981171,167.643799 
	C227.885834,168.036728 227.460480,168.004211 227.247955,167.990814 
	C227.035416,167.977432 227.011887,167.993347 227.013931,167.740936 
	C227.015976,167.488510 227.014038,166.992294 227.014038,166.992294 
	C227.536606,162.491364 227.826370,157.943222 228.723328,153.518188 
	C228.993057,152.187485 230.952606,151.199326 232.450562,150.002609 
	C231.200897,155.717606 229.638718,161.484238 227.981171,167.643799 
z"/>
<path fill="#4F3822" opacity="1.000000" stroke="none" 
	d="
M250.105453,465.452881 
	C250.153091,464.998413 250.583435,465.003021 250.798737,465.005432 
	C251.685287,468.622711 252.356537,472.237610 253.033951,476.278992 
	C252.032852,475.567139 250.402878,474.549683 250.153442,473.264282 
	C249.693680,470.894989 250.044662,468.368408 250.105453,465.452881 
z"/>
<path fill="#4F3621" opacity="1.000000" stroke="none" 
	d="
M437.931976,383.586609 
	C438.683411,377.496002 439.534393,371.023529 440.611206,364.264252 
	C439.901825,370.386536 438.966675,376.795624 437.931976,383.586609 
z"/>
<path fill="#4F3822" opacity="1.000000" stroke="none" 
	d="
M119.749969,158.272217 
	C119.517509,163.762543 119.059792,169.592178 118.373688,175.708984 
	C118.605110,170.201279 119.064911,164.406403 119.749969,158.272217 
z"/>
<path fill="#48331E" opacity="1.000000" stroke="none" 
	d="
M286.187256,133.242783 
	C291.959412,130.150085 292.761200,135.105469 294.558197,139.019592 
	C291.884155,137.416626 289.145264,135.458176 286.187256,133.242783 
z"/>
<path fill="#4C3521" opacity="1.000000" stroke="none" 
	d="
M369.387268,463.998901 
	C372.328125,459.649750 376.977234,457.772430 382.653748,457.058289 
	C378.614746,459.323792 374.179260,461.619232 369.387268,463.998901 
z"/>
<path fill="#4C3521" opacity="1.000000" stroke="none" 
	d="
M221.605453,33.991104 
	C218.324448,38.676086 212.794815,38.080235 207.349915,38.951302 
	C211.690216,37.319687 216.453888,35.672390 221.605453,33.991104 
z"/>
<path fill="#4F3822" opacity="1.000000" stroke="none" 
	d="
M122.053108,144.397629 
	C123.735352,148.170303 123.887482,152.134506 120.375443,155.844513 
	C120.753777,152.297272 121.349625,148.539169 122.053108,144.397629 
z"/>
<path fill="#4C3521" opacity="1.000000" stroke="none" 
	d="
M386.336548,454.932007 
	C388.516296,453.146210 391.034027,451.277252 393.928192,449.397339 
	C391.761261,451.207214 389.217896,453.028046 386.336548,454.932007 
z"/>
<path fill="#4C3521" opacity="1.000000" stroke="none" 
	d="
M368.853516,52.706715 
	C366.011414,52.845905 363.031860,52.630066 362.003021,48.587753 
	C364.168732,49.642250 366.419586,51.036018 368.853516,52.706715 
z"/>
<path fill="#4F3822" opacity="1.000000" stroke="none" 
	d="
M157.319153,73.803162 
	C155.632782,76.071426 153.639145,78.453316 151.300797,80.922485 
	C152.974686,78.645432 154.993271,76.281105 157.319153,73.803162 
z"/>
<path fill="#4F3822" opacity="1.000000" stroke="none" 
	d="
M140.741028,96.131943 
	C140.767838,98.677719 142.271378,102.297928 137.239594,102.919418 
	C138.096466,100.757545 139.291412,98.557762 140.741028,96.131943 
z"/>
<path fill="#4C3521" opacity="1.000000" stroke="none" 
	d="
M394.650940,449.243988 
	C396.340820,447.608459 398.347656,445.860138 400.727020,444.068848 
	C399.055664,445.727661 397.011780,447.429413 394.650940,449.243988 
z"/>
<path fill="#4F3822" opacity="1.000000" stroke="none" 
	d="
M166.701019,64.080208 
	C164.879456,66.213043 162.774826,68.524353 160.322174,70.914154 
	C162.122101,68.747993 164.270035,66.503334 166.701019,64.080208 
z"/>
<path fill="#4F3621" opacity="1.000000" stroke="none" 
	d="
M433.265869,397.818970 
	C434.123199,394.866638 435.222931,391.651581 436.565735,388.207764 
	C435.708618,391.171417 434.608429,394.363861 433.265869,397.818970 
z"/>
<path fill="#4B3623" opacity="1.000000" stroke="none" 
	d="
M413.329651,431.923462 
	C414.254974,430.222626 415.462097,428.342743 416.983276,426.352783 
	C416.068695,428.076630 414.840088,429.910553 413.329651,431.923462 
z"/>
<path fill="#4B3623" opacity="1.000000" stroke="none" 
	d="
M417.648132,426.199890 
	C418.389038,424.659058 419.435272,422.992676 420.784393,421.176636 
	C420.042694,422.709412 418.998108,424.391876 417.648132,426.199890 
z"/>
<path fill="#4B3623" opacity="1.000000" stroke="none" 
	d="
M421.318237,420.888641 
	C422.180115,419.165924 423.316315,417.253204 424.747070,415.171814 
	C423.891968,416.901672 422.742249,418.800171 421.318237,420.888641 
z"/>
<path fill="#4F3822" opacity="1.000000" stroke="none" 
	d="
M171.657562,60.003056 
	C170.816788,60.970409 169.656189,62.009983 168.218658,63.023346 
	C169.073746,62.023178 170.205750,61.049229 171.657562,60.003056 
z"/>
<path fill="#4F3822" opacity="1.000000" stroke="none" 
	d="
M148.714325,84.071472 
	C148.168137,85.149437 147.355774,86.412018 146.253723,87.835098 
	C146.792084,86.749092 147.620102,85.502579 148.714325,84.071472 
z"/>
<path fill="#503F2D" opacity="1.000000" stroke="none" 
	d="
M254.177002,294.299866 
	C254.830154,294.210236 255.713562,294.348236 256.764862,294.652313 
	C256.090912,294.721436 255.249084,294.624481 254.177002,294.299866 
z"/>
<path fill="#4C3521" opacity="1.000000" stroke="none" 
	d="
M383.323669,456.989746 
	C383.819672,456.439331 384.625000,455.822296 385.722778,455.102448 
	C385.221100,455.640778 384.427032,456.281952 383.323669,456.989746 
z"/>
<path fill="#4F3822" opacity="1.000000" stroke="none" 
	d="
M159.723648,71.130249 
	C159.423172,71.806526 158.851944,72.637672 158.039764,73.661865 
	C158.350159,72.998322 158.901535,72.141716 159.723648,71.130249 
z"/>
<path fill="#503F2D" opacity="1.000000" stroke="none" 
	d="
M250.185867,292.265503 
	C250.677032,292.440338 251.187744,292.922882 251.859024,293.615601 
	C251.414856,293.408234 250.810135,292.990723 250.185867,292.265503 
z"/>
<path fill="#48331E" opacity="1.000000" stroke="none" 
	d="
M296.729492,141.674835 
	C297.043335,141.848083 297.468903,142.257675 297.901215,142.855865 
	C297.552368,142.666672 297.196808,142.288925 296.729492,141.674835 
z"/>
<path fill="#48331E" opacity="1.000000" stroke="none" 
	d="
M294.784058,139.551300 
	C295.249603,139.780090 295.827515,140.287048 296.559387,141.042877 
	C296.107697,140.804306 295.502075,140.316895 294.784058,139.551300 
z"/>
<path fill="#4F3822" opacity="1.000000" stroke="none" 
	d="
M143.753571,91.114662 
	C143.469360,91.805290 142.946014,92.695007 142.185974,93.791008 
	C142.471008,93.102783 142.992737,92.208267 143.753571,91.114662 
z"/>
<path fill="#4B3623" opacity="1.000000" stroke="none" 
	d="
M426.240051,412.855286 
	C426.268951,412.459259 426.510864,411.859985 426.918274,411.138367 
	C426.873535,411.561371 426.663300,412.106720 426.240051,412.855286 
z"/>
<path fill="#4B2F18" opacity="1.000000" stroke="none" 
	d="
M117.701828,184.137695 
	C117.763916,184.700317 117.611694,185.499847 117.363037,186.587738 
	C117.340240,186.042267 117.413872,185.208420 117.701828,184.137695 
z"/>
<path fill="#4C3521" opacity="1.000000" stroke="none" 
	d="
M224.629974,33.131035 
	C224.160339,33.395573 223.367111,33.635532 222.266693,33.930077 
	C222.741806,33.691925 223.524094,33.399193 224.629974,33.131035 
z"/>
<path fill="#472E1A" opacity="1.000000" stroke="none" 
	d="
M312.335876,476.762604 
	C312.569397,476.570435 313.088745,476.384766 313.876648,476.130341 
	C313.637360,476.297424 313.129547,476.533264 312.335876,476.762604 
z"/>
<path fill="#4B3623" opacity="1.000000" stroke="none" 
	d="
M234.230652,146.893478 
	C234.255890,146.563202 234.506058,146.029465 234.910126,145.244232 
	C234.861206,145.558487 234.658386,146.124252 234.230652,146.893478 
z"/>
<path fill="#3F2E1E" opacity="1.000000" stroke="none" 
	d="
M441.169373,362.968170 
	C441.116943,362.855194 441.246948,362.597870 441.536377,362.183594 
	C441.631683,362.311859 441.516998,362.577606 441.169373,362.968170 
z"/>
<path fill="#3F2E1E" opacity="1.000000" stroke="none" 
	d="
M441.692200,337.799255 
	C441.550079,337.790009 441.377655,337.532349 441.130859,337.045654 
	C441.289917,337.031586 441.491699,337.276306 441.692200,337.799255 
z"/>
<path fill="#4F3822" opacity="1.000000" stroke="none" 
	d="
M172.768829,59.051186 
	C172.763702,59.166916 172.536377,59.413189 172.126617,59.833496 
	C172.145004,59.732265 172.345810,59.456997 172.768829,59.051186 
z"/>
<path fill="#4F3822" opacity="1.000000" stroke="none" 
	d="
M141.812408,94.072357 
	C141.843033,94.187675 141.677155,94.412170 141.363495,94.785965 
	C141.249542,94.633682 141.382950,94.382431 141.812408,94.072357 
z"/>
<path fill="#4F3822" opacity="1.000000" stroke="none" 
	d="
M145.817505,88.083939 
	C145.838242,88.194801 145.664246,88.413834 145.339905,88.779556 
	C145.244949,88.631149 145.389374,88.386436 145.817505,88.083939 
z"/>
<path fill="#53402F" opacity="1.000000" stroke="none" 
	d="
M226.997711,167.116180 
	C227.014038,166.992294 227.015976,167.488510 227.013550,167.736542 
	C226.970047,167.737442 226.960144,167.489273 226.997711,167.116180 
z"/>
</svg>