<svg version="1.1" id="Layer_1" xmlns="http://www.w3.org/2000/svg" xmlns:xlink="http://www.w3.org/1999/xlink" x="0px" y="0px"
	 width="100%" viewBox="0 0 628 567" enable-background="new 0 0 628 567" xml:space="preserve">
<path fill="#B4D056" opacity="1.000000" stroke="none" 
	d="
M373.000000,568.000000 
	C355.645782,568.000000 338.291534,568.000000 320.141541,567.770264 
	C318.695557,567.407654 318.051239,567.211914 317.394379,567.150574 
	C281.330872,563.781921 247.262024,553.661743 215.148163,536.937012 
	C173.761993,515.383301 139.573990,485.626099 113.401474,447.068970 
	C133.243057,445.591827 152.665863,444.310913 172.080246,442.913239 
	C176.033524,442.628662 177.481674,443.665497 177.541763,448.089691 
	C177.717911,461.058533 178.499878,474.022461 179.266693,486.975159 
	C179.347534,488.340668 180.821457,490.686768 181.785568,490.759094 
	C186.865585,491.140411 191.989441,490.937775 196.844131,490.937775 
	C196.216339,476.200623 195.629410,462.099365 195.007141,447.999664 
	C194.803925,443.395142 196.777359,441.322693 201.539902,441.421295 
	C210.535004,441.607544 219.539352,441.333130 228.535156,441.501221 
	C240.353775,441.722046 252.169510,442.142456 263.981537,442.603607 
	C265.330505,442.656219 266.647766,443.521027 267.979706,444.009277 
	C267.391968,445.285156 267.052887,446.774689 266.172638,447.799286 
	C262.701111,451.839783 259.035004,455.712311 255.488235,459.689178 
	C251.953644,463.652496 248.342682,467.561737 245.065674,471.730865 
	C244.243042,472.777435 243.882126,475.223724 244.541397,476.142334 
	C245.414246,477.358551 247.476456,478.191925 249.070084,478.265289 
	C250.259247,478.320007 251.766052,477.139130 252.703278,476.116272 
	C261.021637,467.037567 269.238037,457.865570 277.499115,448.734314 
	C280.087799,445.872925 282.591949,443.075806 287.157745,443.671906 
	C301.624664,445.560669 316.113007,447.286896 330.597473,449.039124 
	C333.495514,449.389679 335.087189,450.222595 333.301208,453.507050 
	C332.119171,455.680786 331.256226,458.054596 330.471710,460.412445 
	C328.771301,465.522888 331.058716,469.713165 336.178864,471.130219 
	C340.673431,472.374146 343.824310,470.407043 347.119232,464.720612 
	C347.936707,463.309814 349.507233,462.335388 350.731628,461.160400 
	C351.670380,462.927551 353.011444,464.601715 353.446655,466.485199 
	C353.999481,468.877777 353.141510,471.759857 354.128174,473.846191 
	C355.292999,476.309387 357.438538,479.164764 359.793793,479.952881 
	C361.879761,480.650909 365.156281,479.258728 367.341003,477.887329 
	C371.827850,475.070740 369.925659,470.147766 370.556946,466.020935 
	C370.821167,464.293976 372.258118,462.746399 373.161865,461.117249 
	C374.248627,462.173615 375.422272,463.156525 376.395874,464.308502 
	C377.247253,465.315918 377.866241,466.518372 378.600586,467.626251 
	C381.992004,472.742920 389.786743,473.130493 392.711456,467.771332 
	C395.011078,463.557587 398.013580,464.181976 401.028381,465.284576 
	C410.162659,468.625214 419.254944,472.119446 428.186005,475.966095 
	C437.166504,479.834106 445.958588,484.145386 454.779053,488.375427 
	C457.312286,489.590271 460.089478,490.281342 461.081909,487.297729 
	C461.673401,485.519348 460.110809,482.971375 459.339203,480.833435 
	C459.166107,480.353851 458.269501,480.106323 457.676331,479.811707 
	C437.031647,469.556061 416.152222,459.898224 393.668396,454.225952 
	C390.401978,453.401886 388.681152,451.554565 390.906433,448.017487 
	C398.344360,436.194763 399.815155,422.869568 400.499664,409.365936 
	C401.583221,387.990326 398.639160,366.929138 395.342804,345.913239 
	C394.584137,341.076569 389.539520,338.379547 384.142609,339.373169 
	C380.293365,340.081879 377.766083,343.874390 378.380157,348.559784 
	C379.714569,358.742126 381.896423,368.863647 382.480347,379.081573 
	C383.228912,392.180298 383.086456,405.361359 382.622803,418.482025 
	C382.445618,423.495758 380.848999,428.654053 378.950134,433.363770 
	C376.488678,439.469055 372.121582,443.929169 364.925659,444.505981 
	C356.677551,445.167145 349.455994,443.454132 345.838165,435.144470 
	C343.816559,430.501129 341.404846,425.477722 341.379700,420.614166 
	C341.290497,403.357361 341.994598,386.088928 342.728516,368.838959 
	C343.036682,361.595001 344.401917,354.400452 344.849396,347.156433 
	C345.163849,342.066437 342.731781,339.587921 338.067627,339.139008 
	C332.932526,338.644745 329.915833,340.616547 328.934235,345.466400 
	C328.078430,349.694550 327.384979,353.968506 326.886200,358.253204 
	C325.946533,366.325531 324.807373,374.403625 324.465363,382.509460 
	C323.984558,393.904236 323.752563,405.342072 324.194824,416.731171 
	C324.467590,423.754974 326.192993,430.722351 327.350372,438.263214 
	C324.779785,438.385468 322.476044,438.804047 320.250610,438.546356 
	C311.540070,437.537811 302.883698,435.929718 294.152344,435.262756 
	C280.875336,434.248627 267.559326,433.523193 254.247833,433.239105 
	C237.257095,432.876465 220.254349,433.087982 203.256882,433.025116 
	C197.390808,433.003418 196.208878,431.957214 197.234879,426.307098 
	C199.633957,413.095764 201.429413,399.666992 205.220856,386.844177 
	C209.734207,371.579773 214.998489,356.334656 221.908981,342.033905 
	C230.253632,324.765259 240.107727,308.143433 250.355377,291.902222 
	C259.073578,278.084991 270.284332,266.059814 283.041107,255.761719 
	C291.275879,249.114120 290.979065,242.837372 282.105652,236.921936 
	C273.448608,231.150726 264.885559,225.079788 257.084137,218.226440 
	C248.544357,210.724472 242.478134,201.191360 241.755493,189.444412 
	C241.248184,181.197647 241.553238,172.866806 242.053284,164.607269 
	C242.285736,160.767334 244.835526,158.711304 249.237061,158.722107 
	C258.888733,158.745850 262.264740,152.562439 257.707367,144.222580 
	C257.157288,143.215958 257.766083,140.911057 258.647491,139.952011 
	C259.803131,138.694565 261.740479,138.128433 263.381226,137.348267 
	C275.425446,131.621338 288.469971,131.167801 301.380005,130.670380 
	C324.730621,129.770676 347.772186,131.520737 370.125366,139.351425 
	C390.944977,146.644882 408.701904,158.324203 423.879486,174.229889 
	C436.613403,187.574661 446.351776,202.862869 455.174164,218.996445 
	C465.092010,237.133163 472.243011,256.308319 478.475800,275.848572 
	C482.536865,288.580261 485.674866,301.629272 488.731567,314.652283 
	C492.124847,329.109131 495.286469,343.638245 497.922821,358.248901 
	C499.919342,369.313354 501.027130,380.543854 502.362030,391.720612 
	C504.213226,407.220398 506.256958,422.709503 507.570099,438.257935 
	C508.914398,454.174652 509.401886,470.162537 510.492126,486.103699 
	C510.606262,487.772156 512.118958,490.605072 513.222473,490.726929 
	C517.920898,491.245636 522.709473,490.947418 527.599243,490.947418 
	C527.732544,489.093475 527.933350,487.947845 527.878540,486.814575 
	C527.219482,473.188934 526.736572,459.550049 525.778076,445.944916 
	C524.727356,431.031860 523.740662,416.083344 521.800049,401.271576 
	C519.168213,381.183594 516.241150,361.096771 512.360840,341.220245 
	C508.305695,320.448639 503.962860,299.630005 497.905823,279.382355 
	C492.225372,260.393616 484.867279,241.807175 476.937531,223.614685 
	C465.623840,197.658630 449.945465,174.537827 429.234619,154.843536 
	C401.805115,128.760361 368.511261,116.364265 331.671051,113.841385 
	C311.078339,112.431152 290.108765,111.153374 269.593109,116.976273 
	C258.091797,120.240654 247.364059,124.522705 238.789780,133.072998 
	C230.612213,141.227661 226.337769,151.364578 224.789810,162.642654 
	C222.904419,176.379272 222.025452,190.086212 226.810349,203.554077 
	C233.110779,221.287643 245.786255,233.744843 260.513947,244.438568 
	C264.108307,247.048401 264.512695,248.444046 261.267975,251.967377 
	C252.376099,261.622742 243.380051,271.309662 235.645264,281.877075 
	C218.513489,305.282776 205.679672,331.105072 195.802872,358.339264 
	C187.614365,380.918152 181.823059,404.130646 179.234482,428.055878 
	C178.853302,431.579041 177.517502,433.130280 173.960693,433.107117 
	C168.463333,433.071289 162.931229,433.669861 157.478806,433.217194 
	C154.265793,432.950470 151.049194,431.444336 148.062027,430.018402 
	C142.557373,427.390778 139.466782,420.376221 132.030045,420.779419 
	C136.718842,411.463348 136.193573,401.791443 135.977142,392.192261 
	C135.800827,384.372314 132.743347,377.443420 126.851303,372.614655 
	C119.575836,366.652008 111.775604,361.696106 101.239830,362.798462 
	C92.236938,363.740417 91.912170,362.949738 90.399918,371.531158 
	C89.228767,378.176849 87.745811,385.035736 88.304146,391.638947 
	C88.812012,397.645294 90.518051,404.493225 94.095932,409.110382 
	C102.870117,420.433350 114.869568,425.951202 129.678406,423.635803 
	C131.128922,427.416443 132.572693,430.825531 134.255997,434.800171 
	C124.644287,435.587830 115.124687,436.367920 105.493141,436.780273 
	C104.676659,435.096100 104.024323,433.748444 103.260094,432.467560 
	C64.634460,367.728302 53.447662,298.240265 68.960999,224.781540 
	C81.910072,163.465103 112.884743,112.158836 160.335205,71.311455 
	C220.520340,19.501535 290.923553,-2.461898 369.786377,3.341295 
	C408.900299,6.219529 446.126556,17.099064 480.332428,36.610210 
	C570.403931,87.987236 619.682251,165.532196 628.071411,269.405884 
	C628.047302,280.604004 628.097839,291.333771 628.109253,302.513916 
	C625.533936,319.875214 624.271606,337.097107 620.232727,353.641174 
	C605.732422,413.037231 574.703918,462.611542 528.019714,502.052704 
	C489.472412,534.619385 445.164215,555.392273 395.377197,564.215088 
	C387.928467,565.535156 380.459564,566.741211 373.000000,568.000000 
M370.383301,165.961639 
	C369.794403,158.701279 365.565063,154.080688 359.192078,151.433517 
	C355.867645,150.052628 352.161560,148.982803 349.724335,153.471603 
	C347.131989,158.246094 350.906281,159.873001 353.605438,162.219940 
	C355.245148,163.645676 357.384369,165.171570 357.927246,167.049133 
	C359.212341,171.493805 356.530090,173.883392 350.504028,174.053711 
	C346.545746,174.165573 344.158020,175.647156 344.154572,179.922638 
	C344.151154,184.213318 346.727142,185.347183 350.512299,185.923767 
	C361.266510,187.561935 372.554596,177.446609 370.383301,165.961639 
M303.585205,154.244064 
	C302.557373,152.053162 301.801178,149.672928 300.437347,147.716202 
	C298.442444,144.854080 295.202301,143.484634 292.185333,145.270599 
	C289.760040,146.706284 287.290771,149.249146 286.422577,151.832291 
	C285.355469,155.007248 285.758514,158.602676 289.557007,160.858475 
	C295.497223,164.386215 298.965271,163.045303 303.585205,154.244064 
z"/>
<path fill="#FFFFFE" opacity="1.000000" stroke="none" 
	d="
M112.979706,447.223938 
	C139.573990,485.626099 173.761993,515.383301 215.148163,536.937012 
	C247.262024,553.661743 281.330872,563.781921 317.394379,567.150574 
	C318.051239,567.211914 318.695557,567.407654 319.672852,567.770264 
	C213.692749,568.000000 107.385506,568.000000 1.039131,568.000000 
	C1.039131,379.072449 1.039131,190.144913 1.039131,1.108682 
	C210.209457,1.108682 419.419006,1.108682 629.000000,1.108682 
	C629.000000,90.020554 629.000000,179.041611 628.787476,268.503082 
	C628.574890,268.943481 628.146118,268.937561 628.146118,268.937561 
	C619.682251,165.532196 570.403931,87.987236 480.332428,36.610210 
	C446.126556,17.099064 408.900299,6.219529 369.786377,3.341295 
	C290.923553,-2.461898 220.520340,19.501535 160.335205,71.311455 
	C112.884743,112.158836 81.910072,163.465103 68.960999,224.781540 
	C53.447662,298.240265 64.634460,367.728302 103.260094,432.467560 
	C104.024323,433.748444 104.676659,435.096100 105.025681,436.853943 
	C97.979347,437.921417 91.267700,438.385223 84.606171,439.239685 
	C81.086105,439.691193 77.653343,440.823242 73.780838,441.444031 
	C72.917473,437.271729 72.195282,433.313538 72.040253,429.333282 
	C71.584801,417.639709 68.276253,407.170715 56.559860,402.691864 
	C49.957020,400.167786 42.358059,400.218323 35.194302,399.204712 
	C31.065205,398.620453 29.313253,401.044952 29.243793,404.721161 
	C29.152710,409.541840 28.866999,414.457794 29.633926,419.175262 
	C31.277462,429.284882 35.216694,438.016663 46.148548,441.428619 
	C47.770683,441.934967 49.259850,442.867371 50.810539,443.602631 
	C49.350914,444.799561 48.102085,444.831207 46.930473,445.148224 
	C40.729652,446.826019 33.922077,447.460693 28.481436,450.516327 
	C14.082701,458.602997 11.560497,473.258545 10.137987,488.047974 
	C10.059896,488.859863 12.008428,489.866638 13.476268,490.856659 
	C24.621639,490.886536 35.304363,490.842468 46.389046,490.866425 
	C48.923992,490.300232 51.556244,490.255493 53.111115,488.938629 
	C65.761169,478.225037 70.046768,464.289978 68.069366,448.149811 
	C67.618912,444.473083 69.327446,442.659790 73.158234,443.238770 
	C73.268005,449.128204 75.240364,450.415344 81.015030,449.845947 
	C91.652679,448.797058 102.323006,448.079559 112.979706,447.223938 
z"/>
<path fill="#FFFFFF" opacity="1.000000" stroke="none" 
	d="
M373.468658,568.000000 
	C380.459564,566.741211 387.928467,565.535156 395.377197,564.215088 
	C445.164215,555.392273 489.472412,534.619385 528.019714,502.052704 
	C574.703918,462.611542 605.732422,413.037231 620.232727,353.641174 
	C624.271606,337.097107 625.533936,319.875214 628.322998,302.511108 
	C628.576050,302.057953 629.000000,302.000000 629.000000,302.000000 
	C629.000000,390.592316 629.000000,479.184662 629.000000,568.000000 
	C543.979248,568.000000 458.958282,568.000000 373.468658,568.000000 
z"/>
<path fill="#E8F1CB" opacity="1.000000" stroke="none" 
	d="
M629.000000,301.531342 
	C629.000000,302.000000 628.576050,302.057953 628.362244,302.060760 
	C628.097839,291.333771 628.047302,280.604004 628.071411,269.405884 
	C628.146118,268.937561 628.574890,268.943481 628.787476,268.971741 
	C629.000000,279.687561 629.000000,290.375122 629.000000,301.531342 
z"/>
<path fill="#3A2307" opacity="1.000000" stroke="none" 
	d="
M113.401474,447.068970 
	C102.323006,448.079559 91.652679,448.797058 81.015030,449.845947 
	C75.240364,450.415344 73.268005,449.128204 73.398254,443.257385 
	C73.911018,442.475861 74.046089,442.061951 74.181168,441.648071 
	C77.653343,440.823242 81.086105,439.691193 84.606171,439.239685 
	C91.267700,438.385223 97.979347,437.921417 105.137627,437.221649 
	C115.124687,436.367920 124.644287,435.587830 134.255997,434.800171 
	C132.572693,430.825531 131.128922,427.416443 129.918610,423.535492 
	C130.781158,422.433624 131.410248,421.803619 132.039337,421.173615 
	C139.466782,420.376221 142.557373,427.390778 148.062027,430.018402 
	C151.049194,431.444336 154.265793,432.950470 157.478806,433.217194 
	C162.931229,433.669861 168.463333,433.071289 173.960693,433.107117 
	C177.517502,433.130280 178.853302,431.579041 179.234482,428.055878 
	C181.823059,404.130646 187.614365,380.918152 195.802872,358.339264 
	C205.679672,331.105072 218.513489,305.282776 235.645264,281.877075 
	C243.380051,271.309662 252.376099,261.622742 261.267975,251.967377 
	C264.512695,248.444046 264.108307,247.048401 260.513947,244.438568 
	C245.786255,233.744843 233.110779,221.287643 226.810349,203.554077 
	C222.025452,190.086212 222.904419,176.379272 224.789810,162.642654 
	C226.337769,151.364578 230.612213,141.227661 238.789780,133.072998 
	C247.364059,124.522705 258.091797,120.240654 269.593109,116.976273 
	C290.108765,111.153374 311.078339,112.431152 331.671051,113.841385 
	C368.511261,116.364265 401.805115,128.760361 429.234619,154.843536 
	C449.945465,174.537827 465.623840,197.658630 476.937531,223.614685 
	C484.867279,241.807175 492.225372,260.393616 497.905823,279.382355 
	C503.962860,299.630005 508.305695,320.448639 512.360840,341.220245 
	C516.241150,361.096771 519.168213,381.183594 521.800049,401.271576 
	C523.740662,416.083344 524.727356,431.031860 525.778076,445.944916 
	C526.736572,459.550049 527.219482,473.188934 527.878540,486.814575 
	C527.933350,487.947845 527.732544,489.093475 527.599243,490.947418 
	C522.709473,490.947418 517.920898,491.245636 513.222473,490.726929 
	C512.118958,490.605072 510.606262,487.772156 510.492126,486.103699 
	C509.401886,470.162537 508.914398,454.174652 507.570099,438.257935 
	C506.256958,422.709503 504.213226,407.220398 502.362030,391.720612 
	C501.027130,380.543854 499.919342,369.313354 497.922821,358.248901 
	C495.286469,343.638245 492.124847,329.109131 488.731567,314.652283 
	C485.674866,301.629272 482.536865,288.580261 478.475800,275.848572 
	C472.243011,256.308319 465.092010,237.133163 455.174164,218.996445 
	C446.351776,202.862869 436.613403,187.574661 423.879486,174.229889 
	C408.701904,158.324203 390.944977,146.644882 370.125366,139.351425 
	C347.772186,131.520737 324.730621,129.770676 301.380005,130.670380 
	C288.469971,131.167801 275.425446,131.621338 263.381226,137.348267 
	C261.740479,138.128433 259.803131,138.694565 258.647491,139.952011 
	C257.766083,140.911057 257.157288,143.215958 257.707367,144.222580 
	C262.264740,152.562439 258.888733,158.745850 249.237061,158.722107 
	C244.835526,158.711304 242.285736,160.767334 242.053284,164.607269 
	C241.553238,172.866806 241.248184,181.197647 241.755493,189.444412 
	C242.478134,201.191360 248.544357,210.724472 257.084137,218.226440 
	C264.885559,225.079788 273.448608,231.150726 282.105652,236.921936 
	C290.979065,242.837372 291.275879,249.114120 283.041107,255.761719 
	C270.284332,266.059814 259.073578,278.084991 250.355377,291.902222 
	C240.107727,308.143433 230.253632,324.765259 221.908981,342.033905 
	C214.998489,356.334656 209.734207,371.579773 205.220856,386.844177 
	C201.429413,399.666992 199.633957,413.095764 197.234879,426.307098 
	C196.208878,431.957214 197.390808,433.003418 203.256882,433.025116 
	C220.254349,433.087982 237.257095,432.876465 254.247833,433.239105 
	C267.559326,433.523193 280.875336,434.248627 294.152344,435.262756 
	C302.883698,435.929718 311.540070,437.537811 320.250610,438.546356 
	C322.476044,438.804047 324.779785,438.385468 327.350372,438.263214 
	C326.192993,430.722351 324.467590,423.754974 324.194824,416.731171 
	C323.752563,405.342072 323.984558,393.904236 324.465363,382.509460 
	C324.807373,374.403625 325.946533,366.325531 326.886200,358.253204 
	C327.384979,353.968506 328.078430,349.694550 328.934235,345.466400 
	C329.915833,340.616547 332.932526,338.644745 338.067627,339.139008 
	C342.731781,339.587921 345.163849,342.066437 344.849396,347.156433 
	C344.401917,354.400452 343.036682,361.595001 342.728516,368.838959 
	C341.994598,386.088928 341.290497,403.357361 341.379700,420.614166 
	C341.404846,425.477722 343.816559,430.501129 345.838165,435.144470 
	C349.455994,443.454132 356.677551,445.167145 364.925659,444.505981 
	C372.121582,443.929169 376.488678,439.469055 378.950134,433.363770 
	C380.848999,428.654053 382.445618,423.495758 382.622803,418.482025 
	C383.086456,405.361359 383.228912,392.180298 382.480347,379.081573 
	C381.896423,368.863647 379.714569,358.742126 378.380157,348.559784 
	C377.766083,343.874390 380.293365,340.081879 384.142609,339.373169 
	C389.539520,338.379547 394.584137,341.076569 395.342804,345.913239 
	C398.639160,366.929138 401.583221,387.990326 400.499664,409.365936 
	C399.815155,422.869568 398.344360,436.194763 390.906433,448.017487 
	C388.681152,451.554565 390.401978,453.401886 393.668396,454.225952 
	C416.152222,459.898224 437.031647,469.556061 457.676331,479.811707 
	C458.269501,480.106323 459.166107,480.353851 459.339203,480.833435 
	C460.110809,482.971375 461.673401,485.519348 461.081909,487.297729 
	C460.089478,490.281342 457.312286,489.590271 454.779053,488.375427 
	C445.958588,484.145386 437.166504,479.834106 428.186005,475.966095 
	C419.254944,472.119446 410.162659,468.625214 401.028381,465.284576 
	C398.013580,464.181976 395.011078,463.557587 392.711456,467.771332 
	C389.786743,473.130493 381.992004,472.742920 378.600586,467.626251 
	C377.866241,466.518372 377.247253,465.315918 376.395874,464.308502 
	C375.422272,463.156525 374.248627,462.173615 373.161865,461.117249 
	C372.258118,462.746399 370.821167,464.293976 370.556946,466.020935 
	C369.925659,470.147766 371.827850,475.070740 367.341003,477.887329 
	C365.156281,479.258728 361.879761,480.650909 359.793793,479.952881 
	C357.438538,479.164764 355.292999,476.309387 354.128174,473.846191 
	C353.141510,471.759857 353.999481,468.877777 353.446655,466.485199 
	C353.011444,464.601715 351.670380,462.927551 350.731628,461.160400 
	C349.507233,462.335388 347.936707,463.309814 347.119232,464.720612 
	C343.824310,470.407043 340.673431,472.374146 336.178864,471.130219 
	C331.058716,469.713165 328.771301,465.522888 330.471710,460.412445 
	C331.256226,458.054596 332.119171,455.680786 333.301208,453.507050 
	C335.087189,450.222595 333.495514,449.389679 330.597473,449.039124 
	C316.113007,447.286896 301.624664,445.560669 287.157745,443.671906 
	C282.591949,443.075806 280.087799,445.872925 277.499115,448.734314 
	C269.238037,457.865570 261.021637,467.037567 252.703278,476.116272 
	C251.766052,477.139130 250.259247,478.320007 249.070084,478.265289 
	C247.476456,478.191925 245.414246,477.358551 244.541397,476.142334 
	C243.882126,475.223724 244.243042,472.777435 245.065674,471.730865 
	C248.342682,467.561737 251.953644,463.652496 255.488235,459.689178 
	C259.035004,455.712311 262.701111,451.839783 266.172638,447.799286 
	C267.052887,446.774689 267.391968,445.285156 267.979706,444.009277 
	C266.647766,443.521027 265.330505,442.656219 263.981537,442.603607 
	C252.169510,442.142456 240.353775,441.722046 228.535156,441.501221 
	C219.539352,441.333130 210.535004,441.607544 201.539902,441.421295 
	C196.777359,441.322693 194.803925,443.395142 195.007141,447.999664 
	C195.629410,462.099365 196.216339,476.200623 196.844131,490.937775 
	C191.989441,490.937775 186.865585,491.140411 181.785568,490.759094 
	C180.821457,490.686768 179.347534,488.340668 179.266693,486.975159 
	C178.499878,474.022461 177.717911,461.058533 177.541763,448.089691 
	C177.481674,443.665497 176.033524,442.628662 172.080246,442.913239 
	C152.665863,444.310913 133.243057,445.591827 113.401474,447.068970 
z"/>
<path fill="#3E280A" opacity="1.000000" stroke="none" 
	d="
M370.391235,166.383392 
	C372.554596,177.446609 361.266510,187.561935 350.512299,185.923767 
	C346.727142,185.347183 344.151154,184.213318 344.154572,179.922638 
	C344.158020,175.647156 346.545746,174.165573 350.504028,174.053711 
	C356.530090,173.883392 359.212341,171.493805 357.927246,167.049133 
	C357.384369,165.171570 355.245148,163.645676 353.605438,162.219940 
	C350.906281,159.873001 347.131989,158.246094 349.724335,153.471603 
	C352.161560,148.982803 355.867645,150.052628 359.192078,151.433517 
	C365.565063,154.080688 369.794403,158.701279 370.391235,166.383392 
z"/>
<path fill="#BCD466" opacity="1.000000" stroke="none" 
	d="
M132.030029,420.779419 
	C131.410248,421.803619 130.781158,422.433624 129.911865,423.163940 
	C114.869568,425.951202 102.870117,420.433350 94.095932,409.110382 
	C90.518051,404.493225 88.812012,397.645294 88.304146,391.638947 
	C87.745811,385.035736 89.228767,378.176849 90.399918,371.531158 
	C91.912170,362.949738 92.236938,363.740417 101.239830,362.798462 
	C111.775604,361.696106 119.575836,366.652008 126.851303,372.614655 
	C132.743347,377.443420 135.800827,384.372314 135.977142,392.192261 
	C136.193573,401.791443 136.718842,411.463348 132.030029,420.779419 
M110.745155,417.877686 
	C111.828217,418.301666 112.909813,418.729431 113.994576,419.148987 
	C124.883713,423.360687 131.957245,421.768707 132.243927,408.914001 
	C132.254669,408.432739 132.633514,407.958191 132.638428,407.478455 
	C132.732590,398.298553 135.567902,388.433136 128.633286,380.652924 
	C124.317291,375.810608 119.016747,371.532806 113.425209,368.249847 
	C109.664101,366.041656 104.663498,365.661957 100.139130,365.128876 
	C96.725403,364.726624 94.136589,366.109222 93.916512,370.427917 
	C93.487030,378.855408 92.533302,387.255280 92.042450,395.680908 
	C91.694786,401.648438 95.628563,406.055359 99.037315,410.060638 
	C101.811195,413.320007 106.325104,415.098511 110.745155,417.877686 
z"/>
<path fill="#3E280B" opacity="1.000000" stroke="none" 
	d="
M303.519714,154.599426 
	C298.965271,163.045303 295.497223,164.386215 289.557007,160.858475 
	C285.758514,158.602676 285.355469,155.007248 286.422577,151.832291 
	C287.290771,149.249146 289.760040,146.706284 292.185333,145.270599 
	C295.202301,143.484634 298.442444,144.854080 300.437347,147.716202 
	C301.801178,149.672928 302.557373,152.053162 303.519714,154.599426 
z"/>
<path fill="#BAD460" opacity="1.000000" stroke="none" 
	d="
M73.780838,441.444031 
	C74.046089,442.061951 73.911018,442.475861 73.535919,442.871094 
	C69.327446,442.659790 67.618912,444.473083 68.069366,448.149811 
	C70.046768,464.289978 65.761169,478.225037 53.111115,488.938629 
	C51.556244,490.255493 48.923992,490.300232 46.404381,490.509521 
	C46.650040,488.971497 47.050800,487.600494 47.954281,486.789612 
	C52.082195,483.084686 56.377720,479.567200 60.547199,475.907379 
	C61.390808,475.166931 62.344692,474.189636 62.571037,473.171173 
	C63.553211,468.751556 64.215942,464.262177 65.123627,459.824524 
	C66.491150,453.138733 62.462215,448.331512 55.554192,447.951141 
	C47.192963,447.490723 39.155037,448.056793 31.698730,452.865051 
	C28.598854,454.490051 25.797453,456.243866 22.687462,458.184326 
	C19.941923,463.220001 16.485878,467.841553 15.339190,472.978577 
	C14.053877,478.736664 15.890875,485.079926 13.013627,490.782684 
	C12.008428,489.866638 10.059896,488.859863 10.137987,488.047974 
	C11.560497,473.258545 14.082701,458.602997 28.481436,450.516327 
	C33.922077,447.460693 40.729652,446.826019 46.930473,445.148224 
	C48.102085,444.831207 49.350914,444.799561 50.810539,443.602631 
	C49.259850,442.867371 47.770683,441.934967 46.148548,441.428619 
	C35.216694,438.016663 31.277462,429.284882 29.633926,419.175262 
	C28.866999,414.457794 29.152710,409.541840 29.243793,404.721161 
	C29.313253,401.044952 31.065205,398.620453 35.194302,399.204712 
	C42.358059,400.218323 49.957020,400.167786 56.559860,402.691864 
	C68.276253,407.170715 71.584801,417.639709 72.040253,429.333282 
	C72.195282,433.313538 72.917473,437.271729 73.780838,441.444031 
z"/>
<path fill="#B5D156" opacity="1.000000" stroke="none" 
	d="
M13.476274,490.856659 
	C15.890875,485.079926 14.053877,478.736664 15.339190,472.978577 
	C16.485878,467.841553 19.941923,463.220001 22.993454,458.349548 
	C26.485653,461.277985 29.163984,459.250275 31.356125,457.543304 
	C32.224258,456.867310 31.821381,454.558990 31.997206,452.993896 
	C39.155037,448.056793 47.192963,447.490723 55.554192,447.951141 
	C62.462215,448.331512 66.491150,453.138733 65.123627,459.824524 
	C64.215942,464.262177 63.553211,468.751556 62.571037,473.171173 
	C62.344692,474.189636 61.390808,475.166931 60.547199,475.907379 
	C56.377720,479.567200 52.082195,483.084686 47.954281,486.789612 
	C47.050800,487.600494 46.650040,488.971497 46.002422,490.441467 
	C35.304363,490.842468 24.621639,490.886536 13.476274,490.856659 
z"/>
<path fill="#B5D157" opacity="1.000000" stroke="none" 
	d="
M110.406281,417.705688 
	C106.325104,415.098511 101.811195,413.320007 99.037315,410.060638 
	C95.628563,406.055359 91.694786,401.648438 92.042450,395.680908 
	C92.533302,387.255280 93.487030,378.855408 93.916512,370.427917 
	C94.136589,366.109222 96.725403,364.726624 100.139130,365.128876 
	C104.663498,365.661957 109.664101,366.041656 113.425209,368.249847 
	C119.016747,371.532806 124.317291,375.810608 128.633286,380.652924 
	C135.567902,388.433136 132.732590,398.298553 132.638428,407.478455 
	C132.633514,407.958191 132.254669,408.432739 132.243927,408.914001 
	C131.957245,421.768707 124.883713,423.360687 113.994576,419.148987 
	C112.909813,418.729431 111.828217,418.301666 110.406281,417.705688 
z"/>
<path fill="#B5D254" opacity="1.000000" stroke="none" 
	d="
M31.698730,452.865051 
	C31.821381,454.558990 32.224258,456.867310 31.356125,457.543304 
	C29.163984,459.250275 26.485653,461.277985 23.302044,458.162933 
	C25.797453,456.243866 28.598854,454.490051 31.698730,452.865051 
z"/>
</svg>